<?xml version="1.0" encoding="UTF-8"?>
<!DOCTYPE svg PUBLIC "-//W3C//DTD SVG 1.1//EN" "http://www.w3.org/Graphics/SVG/1.1/DTD/svg11.dtd">
<!-- Creator: CorelDRAW 2018 (64-Bit Оценочная версия) -->
<svg xmlns="http://www.w3.org/2000/svg" xml:space="preserve" width="22.0132mm" height="11.43mm" version="1.1" style="shape-rendering:geometricPrecision; text-rendering:geometricPrecision; image-rendering:optimizeQuality; fill-rule:evenodd; clip-rule:evenodd"
viewBox="0 0 2201.32 1143"
 xmlns:xlink="http://www.w3.org/1999/xlink">
 <defs>
  <style type="text/css">
   <![CDATA[
    .fil0 {fill:black;fill-rule:nonzero}
   ]]>
  </style>
 </defs>
 <g id="Слой_x0020_1">
  <metadata id="CorelCorpID_0Corel-Layer"/>
  <path class="fil0" d="M63.83 1114.61c173.63,-112.54 332.71,-93.72 400.89,-70.25 68.18,23.36 124.54,82 117.27,53.91 -30.91,-98.54 -124.54,-126.02 -190,-132.84 -13.63,-1.46 -35.45,0.42 -59.99,4.25 110.91,-76.09 318.17,-228.39 455.44,-383.14 148.17,154.18 150.89,233.19 152.72,291 1.81,78.83 -34.55,123.18 -65.46,146.44 -48.18,35.9 -106.35,40.49 -139.99,29.51 -66.37,-21.76 -93.63,-60.97 -89.09,-126.99 0.91,-5.64 1.82,-10.61 3.63,-15.22 10.01,-20.1 26.37,-41.55 52.73,-37.26 15.45,4.66 15.45,75.04 77.27,64.06 55.45,-9.69 58.18,-92.21 11.82,-112.52 -44.55,-19.21 -114.54,-0.19 -146.35,45.84 -11.83,13.1 -20,30.39 -21.83,53.22 -6.36,76.64 28.19,126.13 104.54,151.2 49.09,15.84 113.63,2.56 160.91,-33.09 49.99,-37.64 77.27,-96.59 74.54,-165.93 -0.91,-32.43 -3.64,-65.7 -17.27,-104.33l0 0c4.55,-6.32 43.63,35.97 102.72,31.24 59.08,-4.68 64.55,-82.81 48.18,-71.9 -46.36,45.35 -106.36,34.34 -155.44,-20.25 -28.19,-30.85 -60,-60.22 -81.82,-80 -12.72,-16.12 -28.19,-33.2 -45.45,-51.34l19.09 0c109.08,-1.36 170.89,12.78 188.17,17.36l1.81 1.39c250.9,75.03 227.27,266.71 163.64,304.71 -80,48.47 -133.64,-35.97 -151.81,-4.72 -17.28,57.87 104.54,100.03 180.89,31.31 50.92,-45.77 53.64,-132.06 34.55,-216.43 37.27,32.8 138.17,154.68 323.62,161.75 184.54,6.96 328.17,-185.19 311.8,-203.94 -13.62,-15.19 -103.63,140.62 -286.35,135.97 -182.72,-4.72 -276.35,-82.06 -398.16,-150.03 -72.72,-40.26 -113.63,-63.17 -134.54,-75.21 30.91,-0.82 143.63,-2.77 253.63,7.25 64.54,5.78 139.08,44.77 176.35,82.02 50.91,51.95 52.73,100 65.46,72.65 0,-46.3 -12.73,-80.38 -30,-105.53 28.17,-7.91 87.26,-25.5 128.18,-46.23 3.63,0 493.61,0 493.61,0l47.26 -17.02 -24.54 -8.73 -22.72 -8.2c0,0 -489.98,0 -493.61,0 -43.64,-22.33 -109.1,-41.01 -134.55,-47.87 20.92,-25.74 36.37,-61.96 36.37,-113.31 -12.73,-27.3 -14.55,20.67 -65.46,72.65 -37.27,37.22 -111.81,76.21 -176.35,82.07 -110,9.93 -222.72,8.05 -253.63,7.25 20.91,-12.01 61.82,-34.95 134.54,-75.29 121.81,-67.93 215.44,-145.23 398.16,-149.96 182.72,-4.69 272.73,151.13 286.35,135.93 16.37,-18.74 -127.26,-210.92 -311.8,-203.85 -185.45,6.95 -286.35,128.82 -323.62,161.71 19.09,-84.45 16.37,-170.74 -34.55,-216.44 -76.35,-68.71 -198.17,-26.56 -180.89,31.25 18.17,31.25 71.81,-53.08 151.81,-4.72 62.72,37.64 86.36,226.72 -158.18,302.89l-1.82 -1.27c0,0 -63.63,20.31 -193.62,18.74l-19.09 0c17.26,-18.07 32.73,-35.22 45.45,-51.42 21.82,-19.77 53.63,-49.07 81.82,-79.85 49.08,-54.72 109.08,-65.59 155.44,-20.31 16.37,10.96 10.9,-67.15 -48.18,-71.84 -59.09,-4.72 -98.17,37.43 -102.72,31.25l0 -0.07c13.63,-38.64 16.36,-71.91 17.27,-104.33 2.73,-69.35 -24.55,-128.3 -74.54,-165.94 -47.28,-35.62 -111.82,-48.86 -160.91,-32.99 -76.35,25 -110.9,74.47 -104.54,151.09 1.83,22.84 10,40.13 21.83,53.24 31.81,46.05 101.8,65.12 146.35,45.84 46.36,-20.3 43.63,-102.77 -11.82,-112.53 -61.82,-10.86 -61.82,59.41 -77.27,64.13 -26.36,4.29 -42.72,-17.23 -52.73,-37.25 -1.81,-4.69 -2.72,-9.65 -3.63,-15.31 -4.54,-66.01 22.72,-105.21 89.09,-126.98 33.64,-10.93 91.81,-6.39 139.99,29.51 30.91,23.33 67.27,67.61 65.46,146.55 -1.83,57.81 -4.55,136.71 -152.72,290.89 -137.27,-154.72 -344.53,-307.05 -455.44,-383.11 24.54,3.87 46.36,5.68 59.99,4.3 65.46,-6.82 159.09,-34.38 190,-132.85 7.27,-28.15 -49.09,30.47 -117.27,53.9 -68.18,23.41 -227.26,42.15 -400.89,-70.34 -32.73,-14.06 -53.63,-18.71 -53.63,-18.71 0,0 0,274.17 0,360.96 0,86.72 61.81,198.43 157.26,195.27 60,-0.75 97.26,-32.61 118.18,-73.4 21.81,-40.8 17.27,-118.78 -6.37,-123.47 -5.45,28.16 -10.91,139.06 -111.81,135.15 -54.54,0 -115.45,-46.09 -120,-189.87 2.73,-171.05 0,-243.74 0,-243.74 0,0 106.36,29.72 104.55,117.36 -14.55,51.77 -8.19,106.28 35.45,113.52 50,8.27 77.26,-41.5 56.36,-81.99 -22.72,-46.66 -58.18,-29.29 -43.64,-83.27 18.19,8.8 44.54,17.41 71.82,24.55 83.63,55.35 339.99,232.75 499.98,413.04 -159.99,180.18 -416.35,357.58 -499.98,412.98 -27.28,7.1 -53.63,15.69 -71.82,24.46 -14.54,-53.94 20.92,-36.57 43.64,-83.23 20.9,-40.45 -6.36,-90.2 -56.36,-81.99 -43.64,7.24 -50,61.81 -35.45,113.53 1.81,87.63 -104.55,117.36 -104.55,117.36 0,0 2.73,-72.66 0,-243.81 4.55,-143.72 65.46,-189.8 120,-189.8 100.9,-3.91 106.36,106.98 111.81,135.14 23.64,-4.68 28.18,-82.59 6.37,-123.47 -20.92,-40.79 -58.18,-72.64 -118.18,-73.4 -95.45,-3.16 -157.26,108.56 -157.26,195.35 0,86.63 0,360.96 0,360.96 0,0 20.9,-4.73 53.63,-18.82zm1447.2 -588.22c10.92,2.76 91.82,24 140.91,49.13 -42.73,21.99 -109.08,40.88 -132.72,47.23 -40,-43.61 -93.63,-51.88 -93.63,-51.88 0,0 47.27,-7.6 85.44,-44.48z"/>
  <path class="fil0" d="M420.18 755.98c15.45,11.7 26.35,1.04 14.54,-16.4 -19.09,-27.2 -89.09,-133.55 -115.44,-103.08 -18.19,21.56 32.72,63.32 100.9,119.48z"/>
  <path class="fil0" d="M434.72 399.01c11.81,-17.32 0.91,-28.09 -14.54,-16.41 -68.18,56.21 -119.09,98.01 -100.9,119.54 26.35,30.42 96.35,-75.86 115.44,-103.13z"/>
 </g>
</svg>
